<svg xmlns="http://www.w3.org/2000/svg" xmlns:xlink="http://www.w3.org/1999/xlink" width="40" height="40" viewBox="0 0 40 40"><defs><style>.a{fill:#fff;}.b{fill:#f3f3f3;}.c{clip-path:url(#a);}.d{fill:#ffdfba;}.e{fill:#ffaa64;}.f{fill:#ffebd2;}.g{fill:#42434d;}.h{fill:#ffd6a6;}.i{fill:#4d4e59;}.j{fill:#fff3e4;}.k{fill:#ffbd7b;}.l{fill:#faa157;}</style><clipPath id="a"><circle class="a" cx="20" cy="20" r="20" transform="translate(7674 3842)"/></clipPath></defs><g transform="translate(-7706 -3840)"><circle class="b" cx="20" cy="20" r="20" transform="translate(7706 3840)"/><g class="c" transform="translate(32 -2)"><g transform="translate(7609.003 3847.906)"><path class="d" d="M96,30.621v2.885a.588.588,0,0,1-.588.588H73.952a.588.588,0,0,1-.588-.588V30.621A5.481,5.481,0,0,1,76.58,25.63a8.593,8.593,0,0,1-2.811-3.223,7.769,7.769,0,0,1,.532-7.684,7.557,7.557,0,0,0,1.268-4.191V7.348A7.348,7.348,0,0,1,82.917,0h3.527a7.348,7.348,0,0,1,7.348,7.348c0,3.372-.082,4.032.324,5.373.573,1.9,1.331,2.13,1.915,4.06a7.774,7.774,0,0,1-2.6,8.332l-.651.518A5.481,5.481,0,0,1,96,30.621Z"/><path class="e" d="M100.632,344.212V347.1a.588.588,0,0,1-.588.588H78.589A.588.588,0,0,1,78,347.1v-2.885a5.479,5.479,0,0,1,5.479-5.479,3.04,3.04,0,0,0,1.262-.273l.018.04,4.2,3.248a.588.588,0,0,0,.72,0l4.2-3.248.018-.04a3.04,3.04,0,0,0,1.262.273A5.479,5.479,0,0,1,100.632,344.212Z" transform="translate(-4.636 -313.591)"/><path class="f" d="M146.993,113.683a.588.588,0,0,1,.556.587v3.519a7.274,7.274,0,1,1-14.549,0v-3.467a.587.587,0,0,1,.638-.586,15.208,15.208,0,0,0,9.914-2.535.586.586,0,0,1,.893.328A2.742,2.742,0,0,0,146.993,113.683Z" transform="translate(-55.595 -102.937)"/><path class="g" d="M93.438,25.112l-.651.518a5.465,5.465,0,0,0-2.264-.488A3.04,3.04,0,0,1,87.479,22.1v-.5l-.011-.027a7.275,7.275,0,0,0,4.493-6.723V11.333a.588.588,0,0,0-.556-.587,2.741,2.741,0,0,1-2.547-2.155.586.586,0,0,0-.893-.328A15.209,15.209,0,0,1,78.05,10.8a.587.587,0,0,0-.638.586v3.467a7.275,7.275,0,0,0,4.493,6.723l-.011.027v.5a3.04,3.04,0,0,1-3.044,3.038,5.465,5.465,0,0,0-2.264.488l-.651-.518a7.774,7.774,0,0,1-1.628-10.389,7.557,7.557,0,0,0,1.268-4.191V7.348A7.348,7.348,0,0,1,82.923,0H86.45A7.348,7.348,0,0,1,93.8,7.348v3.184a7.562,7.562,0,0,0,1.268,4.191A7.774,7.774,0,0,1,93.438,25.112Z" transform="translate(-0.006 0)"/><path class="h" d="M198.621,294.864a7.294,7.294,0,0,1-5.75,0,4.554,4.554,0,0,0,.083-1.206l.011-.027a7.289,7.289,0,0,0,5.562,0l.011.027A4.553,4.553,0,0,0,198.621,294.864Z" transform="translate(-111.066 -272.055)"/><path class="i" d="M89.766.791a.766.766,0,0,1-.413,1.447q-.346-.033-.7-.033H85.124a7.348,7.348,0,0,0-7.348,7.348v.894c0,.528-.367.511-.367.938,0,3.881.016,3.636-.041,3.8-.576,1.7-1.269,1.941-1.83,3.8a7.767,7.767,0,0,0-.29,3.062.767.767,0,0,1-1.475.36,7.77,7.77,0,0,1,.532-7.684,7.557,7.557,0,0,0,1.268-4.191V7.348A7.348,7.348,0,0,1,82.919,0h3.527a7.317,7.317,0,0,1,3.319.791Z" transform="translate(-0.003)"/><path class="j" d="M138.881,155.865a1.122,1.122,0,0,1-.985,2,7.228,7.228,0,0,1-4.894-6.87v-3.467a.587.587,0,0,1,.639-.586c.282.026.591.046.924.056a1.12,1.12,0,0,1,1.082,1.121v1.7A7.248,7.248,0,0,0,138.881,155.865Z" transform="translate(-55.595 -136.14)"/><path class="k" d="M85.973,339.438a.467.467,0,0,1-.277.838,5.478,5.478,0,0,0-5.491,5.479v1.93H78.589A.588.588,0,0,1,78,347.1v-2.885a5.479,5.479,0,0,1,5.479-5.479,3.04,3.04,0,0,0,1.262-.273l.018.04Z" transform="translate(-4.636 -313.591)"/><path class="l" d="M275.208,339.438a.467.467,0,0,0,.277.838,5.478,5.478,0,0,1,5.491,5.479v1.93h1.616a.588.588,0,0,0,.588-.588v-2.885a5.479,5.479,0,0,0-5.479-5.479,3.041,3.041,0,0,1-1.262-.273l-.018.04Z" transform="translate(-187.185 -313.591)"/></g></g></g></svg>