<svg xmlns="http://www.w3.org/2000/svg" xmlns:xlink="http://www.w3.org/1999/xlink" width="364.228" height="81.811" viewBox="0 0 364.228 81.811"><defs><style>.a{fill:#3c3b3b;}.b{fill:url(#a);}.c{fill:url(#b);}.d{fill:#fff;}.e{fill:url(#c);}.f{fill:#b2b1b1;mix-blend-mode:multiply;isolation:isolate;}.g{fill:url(#d);}.h{fill:#0d1f4b;}</style><linearGradient id="a" x1="0.255" y1="0.56" x2="1.227" y2="0.22" gradientUnits="objectBoundingBox"><stop offset="0" stop-color="#0d1f4b"/><stop offset="0.14" stop-color="#102a5a"/><stop offset="0.413" stop-color="#1b4a83"/><stop offset="0.737" stop-color="#2975bb"/></linearGradient><linearGradient id="b" y1="0.5" x2="1" y2="0.5" gradientUnits="objectBoundingBox"><stop offset="0.145" stop-color="#3c3b3b"/><stop offset="0.469" stop-color="#2a2928"/><stop offset="0.737" stop-color="#21201e"/><stop offset="1" stop-color="#3c3b3b"/></linearGradient><linearGradient id="c" x1="59.6" y1="-37.398" x2="60.622" y2="-37.398" gradientUnits="objectBoundingBox"><stop offset="0" stop-color="#0d1f4b"/><stop offset="0.125" stop-color="#102c5a"/><stop offset="0.369" stop-color="#184f83"/><stop offset="0.703" stop-color="#2687c4"/><stop offset="0.797" stop-color="#2b99d8"/></linearGradient><linearGradient id="d" x1="0.256" y1="0.707" x2="0.697" y2="0.01" xlink:href="#c"/></defs><g transform="translate(-777.886 -3848.473)"><g transform="translate(777.886 3848.473)"><path class="a" d="M106.046,179.594l-2.963,4.585s-4.651,24.986-33.305,33.009l-3.439,5.5S99.222,217.718,106.046,179.594Z" transform="translate(-21.867 -171.162)"/><path class="b" d="M106.046,179.594l23.791,16.089s-26.591,31.592-63.5,27.008C66.339,222.691,98.99,216.731,106.046,179.594Z" transform="translate(-21.867 -171.162)"/><path class="c" d="M51.871,218.058H55.31C66.083,193.071,96,184.819,96,184.819L95.008,174.5S57.393,179.318,51.871,218.058Z" transform="translate(-19.778 -170.427)"/><g transform="translate(38.783 11.281)"><path class="d" d="M77.549,212.02l-.205.045a.345.345,0,0,0-.075-.02c-2.261-.1-4.523-.208-6.785-.3a2.393,2.393,0,0,1-1.277-.373c-1.892-1.239-3.8-2.45-5.7-3.681a1.276,1.276,0,0,1-.418-.45c-.619-1.169-1.218-2.349-1.826-3.523-.507-.98-1.02-1.958-1.53-2.936l-.045-.205c.009-.094.023-.187.027-.282.1-2.287.211-4.574.308-6.862a1.608,1.608,0,0,1,.263-.832c1.252-1.946,2.5-3.9,3.753-5.84a1.289,1.289,0,0,1,.449-.421c1.091-.58,2.194-1.14,3.291-1.71q1.6-.828,3.192-1.662l.2-.045a.187.187,0,0,0,.049.018c2.393.11,4.786.213,7.178.335a1.516,1.516,0,0,1,.706.223q2.924,1.85,5.824,3.734a1.591,1.591,0,0,1,.516.564c.756,1.421,1.487,2.856,2.23,4.285.361.693.73,1.382,1.1,2.072l.068.307a.814.814,0,0,0-.025.124c-.11,2.356-.216,4.713-.337,7.068a1.364,1.364,0,0,1-.193.637q-1.885,2.977-3.8,5.934a1.389,1.389,0,0,1-.5.444c-1.075.574-2.163,1.126-3.244,1.687S78.614,211.467,77.549,212.02Z" transform="translate(-59.69 -182.924)"/><path class="e" d="M77.549,212.02l-.205.045a.345.345,0,0,0-.075-.02c-2.261-.1-4.523-.208-6.785-.3a2.393,2.393,0,0,1-1.277-.373c-1.892-1.239-3.8-2.45-5.7-3.681a1.276,1.276,0,0,1-.418-.45c-.619-1.169-1.218-2.349-1.826-3.523-.507-.98-1.02-1.958-1.53-2.936l-.045-.205c.009-.094.023-.187.027-.282.1-2.287.211-4.574.308-6.862a1.608,1.608,0,0,1,.263-.832c1.252-1.946,2.5-3.9,3.753-5.84a1.289,1.289,0,0,1,.449-.421c1.091-.58,2.194-1.14,3.291-1.71q1.6-.828,3.192-1.662l.2-.045a.187.187,0,0,0,.049.018c2.393.11,4.786.213,7.178.335a1.516,1.516,0,0,1,.706.223q2.924,1.85,5.824,3.734a1.591,1.591,0,0,1,.516.564c.756,1.421,1.487,2.856,2.23,4.285.361.693.73,1.382,1.1,2.072l.068.307a.814.814,0,0,0-.025.124c-.11,2.356-.216,4.713-.337,7.068a1.364,1.364,0,0,1-.193.637q-1.885,2.977-3.8,5.934a1.389,1.389,0,0,1-.5.444c-1.075.574-2.163,1.126-3.244,1.687S78.614,211.467,77.549,212.02ZM68.53,198.748c.224,1.025.452,2.048.669,3.074a.345.345,0,0,0,.267.3c2.023.637,4.041,1.284,6.064,1.918a.378.378,0,0,0,.314-.064c1.566-1.416,3.123-2.842,4.688-4.26a.39.39,0,0,0,.133-.431q-.676-3.046-1.333-6.1a.4.4,0,0,0-.327-.342q-3-.943-5.985-1.905a.318.318,0,0,0-.366.082q-2.334,2.141-4.681,4.266a.344.344,0,0,0-.12.385C68.085,196.7,68.306,197.724,68.53,198.748Zm3.273,8.309,4.905,3.266c-.4-1.832-.787-3.6-1.178-5.383Zm-.059-22.377c.4,1.827.787,3.593,1.179,5.385l3.725-2.118Zm9.577,15.4c-.01,1.441-.021,2.853-.032,4.3l5.3-2.624Zm2.392-5.253c.127-1.984.251-3.914.378-5.9L80,192.646ZM68.45,202.36l-3.709-2.18c-.127,1.984-.251,3.915-.378,5.907Zm-6.589-9.11,5.272,1.678c.01-1.449.02-2.853.03-4.3ZM72.266,190.2,71.1,184.859l-3.065,4.974Zm7.312,1.97,4.051-3.7-5.86-.165C78.38,189.606,78.969,190.864,79.578,192.165Zm1.948,7.3,5.223,1.662-2.787-5.158Zm-19.825-5.6,2.788,5.159,2.436-3.5Zm7.173,8.969-4.051,3.692,5.86.166Zm8.484,7.3,3.061-4.974-4.229-.36C76.582,206.6,76.964,208.34,77.358,210.143ZM67.292,196.131l-2.377,3.412,3.583,2.1C68.091,199.783,67.7,197.989,67.292,196.131Zm20.211-1.2-3.017.66c.908,1.681,1.805,3.343,2.7,5.005l.052-.011C87.327,198.712,87.414,196.839,87.5,194.931Zm-.142-.642-2.6-5.029-.05.016c-.121,1.885-.241,3.771-.363,5.673Zm-19.556-3.831c-.01,1.384-.02,2.736-.03,4.151l4.168-3.8Zm1.768,12.368c.607,1.294,1.182,2.517,1.765,3.76l3.606-2.05Zm17.017-.358-5.1,2.525,2.047,2.243Zm-7.981-17.684-.915,2.877,5.669.161Zm-.6-.237-5.605-.259-.018.05,4.7,3.128Zm3,20.877-2.954,4.8.038.041,4.98-2.574Zm-.337-4.977c-1.393,1.269-2.734,2.491-4.115,3.751l4.085.347C80.657,203.182,80.668,201.847,80.677,200.448Zm-7.126-10,5.306,1.688c-.6-1.273-1.164-2.486-1.739-3.713Zm-3.1,19.993,5.573.259.017-.047-4.668-3.112Zm-.074-25.625-.04-.04-4.946,2.56,2.049,2.248ZM81.214,198.8c.795-1.142,1.555-2.232,2.324-3.335l-3.5-2.056ZM65.2,207.185l4.653,2.994.9-2.838Zm-.251-19.38-3.022,4.7,5.034-2.49Zm-3.615,6.74-.06,0c-.084,1.83-.169,3.66-.253,5.5l2.938-.643Zm2.355,11.042.059-.014.353-5.514-2.939.643Z" transform="translate(-59.69 -182.924)"/></g><path class="f" d="M81.5,185.017A14.567,14.567,0,0,0,62.677,206.2,71.41,71.41,0,0,1,81.5,185.017Z" transform="translate(-20.959 -171.695)"/><path class="g" d="M89.592,173.816s-36.489-18.11-75.23,22.006c0,0,13.754,14.671,32.093,21.548C46.455,217.37,55.476,185.965,89.592,173.816Z" transform="translate(-14.362 -169.739)"/></g><g transform="translate(777.886 3910.28)"><path class="h" d="M149.5,208.433H161.02v2.849h-8.135v3.3h7.466v2.633h-7.466v3.776h8.307v2.848H149.5Z" transform="translate(-149.497 -208.066)"/><path class="h" d="M179.852,219.31a2.089,2.089,0,0,0-2.265-1.92c-1.964,0-2.611,1.986-2.611,3.625,0,1.6.625,3.517,2.546,3.517a2.357,2.357,0,0,0,2.438-2.265h2.957a4.987,4.987,0,0,1-5.373,4.574,5.415,5.415,0,0,1-5.632-5.718c0-3.474,2.072-6.042,5.7-6.042,2.632,0,5.05,1.381,5.243,4.229Z" transform="translate(-158.599 -210.765)"/><path class="h" d="M198.526,215.081c3.517,0,5.782,2.331,5.782,5.891a5.471,5.471,0,0,1-5.782,5.869c-3.5,0-5.762-2.331-5.762-5.869C192.764,217.411,195.03,215.081,198.526,215.081Zm0,9.451c2.092,0,2.718-1.791,2.718-3.56,0-1.791-.626-3.582-2.718-3.582-2.072,0-2.7,1.791-2.7,3.582C195.828,222.741,196.454,224.532,198.526,224.532Z" transform="translate(-167.067 -210.765)"/><path class="h" d="M215.688,215.383h2.891v1.51h.043a4.028,4.028,0,0,1,3.409-1.813,3.3,3.3,0,0,1,3.258,1.856,4.05,4.05,0,0,1,3.367-1.856c2.373,0,4.078,1.1,4.078,3.992v7.466H229.67v-6.322c0-1.489-.129-2.719-1.877-2.719-1.726,0-2.05,1.424-2.05,2.827v6.214h-3.064v-6.258c0-1.295.086-2.784-1.856-2.784-.6,0-2.072.389-2.072,2.568v6.473h-3.063Z" transform="translate(-176.375 -210.765)"/><path class="h" d="M248.6,215.383h2.891v1.51h.043a4.028,4.028,0,0,1,3.409-1.813,3.3,3.3,0,0,1,3.258,1.856,4.052,4.052,0,0,1,3.366-1.856c2.373,0,4.078,1.1,4.078,3.992v7.466h-3.064v-6.322c0-1.489-.129-2.719-1.878-2.719-1.726,0-2.05,1.424-2.05,2.827v6.214h-3.064v-6.258c0-1.295.087-2.784-1.855-2.784-.6,0-2.072.389-2.072,2.568v6.473H248.6Z" transform="translate(-189.74 -210.765)"/><path class="h" d="M292.014,208.433h6.948c3.84,0,5.329,2.438,5.329,4.941s-1.489,4.942-5.329,4.942H295.4v5.524h-3.388Zm3.388,7.25h2.632c1.575,0,2.978-.345,2.978-2.309s-1.4-2.308-2.978-2.308H295.4Z" transform="translate(-207.369 -208.066)"/><path class="h" d="M315.7,215.383h2.913v2.071h.043a3.945,3.945,0,0,1,3.561-2.373,2.282,2.282,0,0,1,.669.108v2.848a5.544,5.544,0,0,0-1.1-.108c-2.244,0-3.021,1.619-3.021,3.582v5.027H315.7Z" transform="translate(-216.988 -210.765)"/><path class="h" d="M334.358,215.081c3.517,0,5.783,2.331,5.783,5.891a5.471,5.471,0,0,1-5.783,5.869c-3.5,0-5.762-2.331-5.762-5.869C328.6,217.411,330.862,215.081,334.358,215.081Zm0,9.451c2.093,0,2.719-1.791,2.719-3.56,0-1.791-.626-3.582-2.719-3.582-2.071,0-2.7,1.791-2.7,3.582C331.661,222.741,332.286,224.532,334.358,224.532Z" transform="translate(-222.224 -210.765)"/><path class="h" d="M359.012,222.416h-.043a3.7,3.7,0,0,1-3.388,1.726c-3.366,0-5.006-2.891-5.006-5.977,0-3,1.662-5.783,4.941-5.783a3.836,3.836,0,0,1,3.3,1.662h.043v-5.61h3.064v15.407h-2.913Zm-2.675-7.725c-2.007,0-2.7,1.726-2.7,3.56,0,1.748.8,3.582,2.7,3.582,2.028,0,2.632-1.769,2.632-3.6C358.969,216.417,358.322,214.691,356.337,214.691Z" transform="translate(-231.149 -208.066)"/><path class="h" d="M384.037,226.746h-2.913v-1.554h-.065a3.98,3.98,0,0,1-3.409,1.856c-3.258,0-4.078-1.834-4.078-4.6V215.59h3.065v6.3c0,1.835.539,2.741,1.963,2.741,1.661,0,2.374-.928,2.374-3.194V215.59h3.064Z" transform="translate(-240.487 -210.972)"/><path class="h" d="M402.473,219.31a2.089,2.089,0,0,0-2.265-1.92c-1.964,0-2.611,1.986-2.611,3.625,0,1.6.626,3.517,2.546,3.517a2.358,2.358,0,0,0,2.439-2.265h2.956a4.986,4.986,0,0,1-5.373,4.574,5.415,5.415,0,0,1-5.632-5.718c0-3.474,2.072-6.042,5.7-6.042,2.632,0,5.049,1.381,5.243,4.229Z" transform="translate(-248.999 -210.765)"/><path class="h" d="M419.143,213.3h2.244v2.05h-2.244v5.524c0,1.036.258,1.294,1.294,1.294a4.763,4.763,0,0,0,.95-.086v2.395a11.708,11.708,0,0,1-1.791.108c-1.878,0-3.517-.432-3.517-2.654v-6.581h-1.856V213.3h1.856v-3.344h3.065Z" transform="translate(-256.995 -208.686)"/><path class="h" d="M439.4,208.433h4.769l3.6,10.595h.043l3.409-10.595h4.769v15.407H452.82V212.921h-.043L449,223.839h-2.61l-3.777-10.811h-.043v10.811H439.4Z" transform="translate(-267.218 -208.066)"/><path class="h" d="M476.985,215.081c3.516,0,5.782,2.331,5.782,5.891a5.471,5.471,0,0,1-5.782,5.869c-3.5,0-5.762-2.331-5.762-5.869C471.223,217.411,473.489,215.081,476.985,215.081Zm0,9.451c2.093,0,2.719-1.791,2.719-3.56,0-1.791-.626-3.582-2.719-3.582-2.072,0-2.7,1.791-2.7,3.582C474.288,222.741,474.912,224.532,476.985,224.532Z" transform="translate(-280.141 -210.765)"/><path class="h" d="M494,215.383h2.912v1.554h.065a3.98,3.98,0,0,1,3.41-1.856c3.258,0,4.078,1.834,4.078,4.6v6.862H501.4v-6.3c0-1.835-.54-2.741-1.964-2.741-1.661,0-2.373.928-2.373,3.194v5.848H494Z" transform="translate(-289.391 -210.765)"/><path class="h" d="M518.753,210.958h-3.064v-2.525h3.064Zm-3.064,1.726h3.064v11.156h-3.064Z" transform="translate(-298.198 -208.066)"/><path class="h" d="M528.092,213.3h2.244v2.05h-2.244v5.524c0,1.036.258,1.294,1.295,1.294a4.755,4.755,0,0,0,.949-.086v2.395a11.7,11.7,0,0,1-1.791.108c-1.878,0-3.517-.432-3.517-2.654v-6.581h-1.856V213.3h1.856v-3.344h3.064Z" transform="translate(-301.236 -208.686)"/><path class="h" d="M542.884,215.081c3.517,0,5.782,2.331,5.782,5.891a5.471,5.471,0,0,1-5.782,5.869c-3.5,0-5.761-2.331-5.761-5.869C537.123,217.411,539.388,215.081,542.884,215.081Zm0,9.451c2.093,0,2.719-1.791,2.719-3.56,0-1.791-.626-3.582-2.719-3.582-2.072,0-2.7,1.791-2.7,3.582C540.187,222.741,540.812,224.532,542.884,224.532Z" transform="translate(-306.901 -210.765)"/><path class="h" d="M559.9,215.383h2.912v2.071h.044a3.944,3.944,0,0,1,3.56-2.373,2.287,2.287,0,0,1,.669.108v2.848a5.556,5.556,0,0,0-1.1-.108c-2.244,0-3.021,1.619-3.021,3.582v5.027H559.9Z" transform="translate(-316.151 -210.765)"/><path class="h" d="M577.241,210.958h-3.064v-2.525h3.064Zm-3.064,1.726h3.064v11.156h-3.064Z" transform="translate(-321.948 -208.066)"/><path class="h" d="M583.4,215.383h2.913v1.554h.065a3.979,3.979,0,0,1,3.409-1.856c3.259,0,4.078,1.834,4.078,4.6v6.862h-3.064v-6.3c0-1.835-.539-2.741-1.964-2.741-1.661,0-2.373.928-2.373,3.194v5.848H583.4Z" transform="translate(-325.695 -210.765)"/><path class="h" d="M615.435,225.827c0,1.835-.647,4.941-5.783,4.941-2.2,0-4.768-1.036-4.919-3.582h3.043a2.072,2.072,0,0,0,2.287,1.532c1.7,0,2.481-1.165,2.46-2.762v-1.468h-.043a3.769,3.769,0,0,1-3.344,1.726c-3.344,0-4.768-2.546-4.768-5.61,0-2.891,1.661-5.524,4.79-5.524a3.471,3.471,0,0,1,3.323,1.791h.043v-1.489h2.913Zm-2.913-5.006c0-1.813-.626-3.43-2.611-3.43-1.726,0-2.481,1.51-2.481,3.172,0,1.6.6,3.344,2.481,3.344C611.659,223.906,612.522,222.418,612.522,220.821Z" transform="translate(-334.207 -210.765)"/><path class="h" d="M639.433,218.475c0,2.05,1.6,2.848,3.409,2.848,1.187,0,3-.346,3-1.921,0-1.662-2.309-1.942-4.575-2.546-2.287-.6-4.6-1.489-4.6-4.381,0-3.15,2.978-4.66,5.761-4.66,3.215,0,6.171,1.4,6.171,4.963h-3.28c-.108-1.855-1.423-2.331-3.042-2.331-1.08,0-2.33.454-2.33,1.748,0,1.187.734,1.338,4.6,2.331,1.122.28,4.574.993,4.574,4.488,0,2.827-2.223,4.941-6.408,4.941-3.409,0-6.6-1.683-6.56-5.48Z" transform="translate(-347.115 -207.815)"/><path class="h" d="M662.976,221.705c.087,1.943,1.035,2.827,2.74,2.827a2.522,2.522,0,0,0,2.416-1.445h2.7a5.02,5.02,0,0,1-5.222,3.754c-3.518,0-5.7-2.417-5.7-5.869a5.6,5.6,0,0,1,5.7-5.891c3.8,0,5.632,3.194,5.416,6.624Zm4.985-1.942c-.281-1.553-.95-2.373-2.438-2.373a2.414,2.414,0,0,0-2.546,2.373Z" transform="translate(-356.763 -210.765)"/><path class="h" d="M681.673,215.383h2.913v2.071h.043a3.944,3.944,0,0,1,3.56-2.373,2.286,2.286,0,0,1,.669.108v2.848a5.548,5.548,0,0,0-1.1-.108c-2.245,0-3.021,1.619-3.021,3.582v5.027h-3.064Z" transform="translate(-365.599 -210.765)"/><path class="h" d="M701.252,226.746h-3.409l-3.819-11.156h3.215l2.352,7.617h.043l2.352-7.617h3.043Z" transform="translate(-370.615 -210.972)"/><path class="h" d="M717.9,210.958h-3.064v-2.525H717.9Zm-3.064,1.726H717.9v11.156h-3.064Z" transform="translate(-379.068 -208.066)"/><path class="h" d="M731.427,219.31a2.089,2.089,0,0,0-2.266-1.92c-1.963,0-2.611,1.986-2.611,3.625,0,1.6.625,3.517,2.546,3.517a2.357,2.357,0,0,0,2.438-2.265h2.956a4.985,4.985,0,0,1-5.373,4.574,5.415,5.415,0,0,1-5.631-5.718c0-3.474,2.071-6.042,5.7-6.042,2.632,0,5.05,1.381,5.244,4.229Z" transform="translate(-382.579 -210.765)"/><path class="h" d="M747.076,221.705c.086,1.943,1.035,2.827,2.74,2.827a2.522,2.522,0,0,0,2.416-1.445h2.7a5.019,5.019,0,0,1-5.222,3.754c-3.518,0-5.7-2.417-5.7-5.869a5.6,5.6,0,0,1,5.7-5.891c3.8,0,5.632,3.194,5.416,6.624Zm4.984-1.942c-.28-1.553-.949-2.373-2.438-2.373a2.414,2.414,0,0,0-2.546,2.373Z" transform="translate(-390.914 -210.765)"/></g><g transform="translate(893.392 3859.524)"><g transform="translate(0)"><path class="h" d="M159.312,172.494H150.8v-5.249h23.261v5.249h-8.509v23.142h-6.243Z" transform="translate(-150.803 -167.245)"/><path class="h" d="M170.091,167.245h6.242V178.14h11.492V167.245h6.243v28.39h-6.243V183.389H176.333v12.247h-6.242Z" transform="translate(-143.568 -167.245)"/><path class="h" d="M191.518,167.245h21.233v5.249H197.76v6.083h13.758v4.851H197.76v6.958h15.309v5.249H191.518Z" transform="translate(-135.53 -167.245)"/><path class="h" d="M218.295,167.245h8.787l6.641,19.522h.08l6.283-19.522h8.787v28.39h-5.846V175.515h-.078l-6.959,20.121h-4.81l-6.958-19.921h-.08v19.921h-5.846Z" transform="translate(-125.486 -167.245)"/><path class="h" d="M258.559,195.635h-7.038l-9.226-28.39h6.442l6.321,19.961h.08l6.4-19.961h6.442Z" transform="translate(-116.483 -167.245)"/><path class="h" d="M262.74,167.245h21.233v5.249h-14.99v6.083H282.74v4.851H268.983v6.958h15.308v5.249H262.74Z" transform="translate(-108.814 -167.245)"/><path class="h" d="M291.835,196.083c-1.233,3.3-3.182,4.652-7.078,4.652a33.883,33.883,0,0,1-3.46-.2v-4.653a29.6,29.6,0,0,0,3.3.2c1.947-.2,2.584-2.226,1.947-3.857l-7.236-19.284h6.044l4.653,14.076h.078l4.494-14.076h5.844Z" transform="translate(-102.599 -165.108)"/><path class="h" d="M300.975,184.744c.159,3.578,1.909,5.209,5.049,5.209,2.267,0,4.1-1.393,4.454-2.665h4.97c-1.591,4.851-4.97,6.918-9.622,6.918-6.482,0-10.5-4.453-10.5-10.814,0-6.163,4.255-10.855,10.5-10.855,7,0,10.377,5.884,9.979,12.207Zm9.184-3.579c-.517-2.863-1.749-4.374-4.493-4.374a4.45,4.45,0,0,0-4.692,4.374Z" transform="translate(-96.59 -165.26)"/><path class="h" d="M313.055,167.245H318.7v6.083a6.391,6.391,0,0,1-5.646,6.68v-2.624c2.028-.677,2.624-2.068,2.624-4.017h-2.624Z" transform="translate(-89.941 -167.245)"/><path class="h" d="M323.194,186.97c.04,2.466,2.107,3.458,4.334,3.458,1.631,0,3.7-.635,3.7-2.624,0-1.711-2.346-2.306-6.4-3.181-3.26-.716-6.521-1.869-6.521-5.488,0-5.247,4.532-6.6,8.945-6.6,4.494,0,8.629,1.51,9.066,6.561h-5.367c-.16-2.188-1.83-2.783-3.857-2.783-1.273,0-3.141.238-3.141,1.907,0,2.028,3.181,2.307,6.4,3.062,3.3.755,6.521,1.949,6.521,5.766,0,5.407-4.692,7.156-9.384,7.156-4.771,0-9.424-1.789-9.663-7.236Z" transform="translate(-88.151 -165.26)"/></g></g></g></svg>