<svg xmlns="http://www.w3.org/2000/svg" xmlns:xlink="http://www.w3.org/1999/xlink" width="178.084" height="40" viewBox="0 0 178.084 40"><defs><style>.a{fill:#3c3b3b;}.b{fill:url(#a);}.c{fill:url(#b);}.d{fill:#fff;}.e{fill:url(#c);}.f{fill:#b2b1b1;mix-blend-mode:multiply;isolation:isolate;}.g{fill:url(#d);}</style><linearGradient id="a" x1="0.255" y1="0.56" x2="1.227" y2="0.22" gradientUnits="objectBoundingBox"><stop offset="0" stop-color="#0d1f4b"/><stop offset="0.14" stop-color="#102a5a"/><stop offset="0.413" stop-color="#1b4a83"/><stop offset="0.737" stop-color="#2975bb"/></linearGradient><linearGradient id="b" y1="0.5" x2="1" y2="0.5" gradientUnits="objectBoundingBox"><stop offset="0.145" stop-color="#3c3b3b"/><stop offset="0.469" stop-color="#2a2928"/><stop offset="0.737" stop-color="#21201e"/><stop offset="1" stop-color="#3c3b3b"/></linearGradient><linearGradient id="c" x1="59.6" y1="-37.398" x2="60.622" y2="-37.398" gradientUnits="objectBoundingBox"><stop offset="0" stop-color="#0d1f4b"/><stop offset="0.125" stop-color="#102c5a"/><stop offset="0.369" stop-color="#184f83"/><stop offset="0.703" stop-color="#2687c4"/><stop offset="0.797" stop-color="#2b99d8"/></linearGradient><linearGradient id="d" x1="0.256" y1="0.707" x2="0.697" y2="0.01" xlink:href="#c"/></defs><g transform="translate(-2917.868 265)"><g transform="translate(2917.868 -265)"><path class="a" d="M85.753,179.594,84.3,181.836S82.03,194.052,68.02,197.975l-1.681,2.69S82.417,198.234,85.753,179.594Z" transform="translate(-44.595 -175.471)"/><path class="b" d="M85.753,179.594l11.632,7.866s-13,15.447-31.046,13.205C66.339,200.665,82.3,197.751,85.753,179.594Z" transform="translate(-44.595 -175.471)"/><path class="c" d="M51.871,195.8h1.681c5.268-12.217,19.894-16.252,19.894-16.252l-.484-5.043S54.571,176.858,51.871,195.8Z" transform="translate(-36.18 -172.511)"/><g transform="translate(18.962 5.516)"><path class="d" d="M68.422,197.15l-.1.022a.169.169,0,0,0-.037-.01c-1.106-.05-2.211-.1-3.317-.147a1.17,1.17,0,0,1-.624-.182c-.925-.606-1.859-1.2-2.787-1.8a.624.624,0,0,1-.2-.22c-.3-.571-.6-1.148-.893-1.723-.248-.479-.5-.957-.748-1.435l-.022-.1c0-.046.011-.092.013-.138.051-1.118.1-2.236.151-3.355a.786.786,0,0,1,.128-.407c.612-.951,1.22-1.906,1.835-2.856a.63.63,0,0,1,.22-.206c.533-.284,1.073-.557,1.609-.836q.781-.4,1.561-.813l.1-.022a.092.092,0,0,0,.024.009c1.17.054,2.34.1,3.51.164a.741.741,0,0,1,.345.109q1.429.9,2.848,1.826a.778.778,0,0,1,.252.276c.37.695.727,1.4,1.09,2.1.177.339.357.676.535,1.013l.033.15a.4.4,0,0,0-.012.061c-.054,1.152-.106,2.3-.165,3.456a.667.667,0,0,1-.094.312q-.922,1.456-1.859,2.9a.679.679,0,0,1-.242.217c-.526.281-1.058.551-1.586.825Z" transform="translate(-59.69 -182.924)"/><path class="e" d="M68.422,197.15l-.1.022a.169.169,0,0,0-.037-.01c-1.106-.05-2.211-.1-3.317-.147a1.17,1.17,0,0,1-.624-.182c-.925-.606-1.859-1.2-2.787-1.8a.624.624,0,0,1-.2-.22c-.3-.571-.6-1.148-.893-1.723-.248-.479-.5-.957-.748-1.435l-.022-.1c0-.046.011-.092.013-.138.051-1.118.1-2.236.151-3.355a.786.786,0,0,1,.128-.407c.612-.951,1.22-1.906,1.835-2.856a.63.63,0,0,1,.22-.206c.533-.284,1.073-.557,1.609-.836q.781-.4,1.561-.813l.1-.022a.092.092,0,0,0,.024.009c1.17.054,2.34.1,3.51.164a.741.741,0,0,1,.345.109q1.429.9,2.848,1.826a.778.778,0,0,1,.252.276c.37.695.727,1.4,1.09,2.1.177.339.357.676.535,1.013l.033.15a.4.4,0,0,0-.012.061c-.054,1.152-.106,2.3-.165,3.456a.667.667,0,0,1-.094.312q-.922,1.456-1.859,2.9a.679.679,0,0,1-.242.217c-.526.281-1.058.551-1.586.825Zm-4.41-6.489c.11.5.221,1,.327,1.5a.169.169,0,0,0,.131.147c.989.311,1.976.628,2.965.938a.185.185,0,0,0,.154-.031c.766-.692,1.527-1.39,2.292-2.083a.191.191,0,0,0,.065-.211q-.331-1.489-.652-2.981a.2.2,0,0,0-.16-.167q-1.465-.461-2.926-.932a.156.156,0,0,0-.179.04q-1.141,1.047-2.289,2.086a.168.168,0,0,0-.059.188C63.795,189.659,63.9,190.16,64.012,190.661Zm1.6,4.062,2.4,1.6-.576-2.632Zm-.029-10.941c.2.893.385,1.757.576,2.633l1.821-1.035Zm4.682,7.528c-.005.7-.01,1.4-.015,2.1l2.593-1.283Zm1.17-2.569c.062-.97.123-1.913.185-2.887l-2,1.823Zm-7.463,3.685-1.813-1.066c-.062.97-.123,1.914-.185,2.888Zm-3.222-4.454,2.578.82c.005-.709.01-1.4.015-2.1Zm5.088-1.493-.571-2.609-1.5,2.432Zm3.575.963,1.981-1.807-2.865-.081Zm.953,3.57,2.554.813L71.558,189.3Zm-9.693-2.736,1.363,2.523,1.191-1.709Zm3.507,4.385L62.2,194.467l2.865.081Zm4.148,3.57,1.5-2.432-2.068-.176Zm-4.922-6.851-1.162,1.668L64,192.075Zm9.882-.587-1.475.323,1.321,2.447.026-.005C73.2,190.643,73.245,189.728,73.289,188.794Zm-.069-.314-1.272-2.459-.024.008c-.059.922-.118,1.844-.177,2.774Zm-9.561-1.873c-.005.677-.01,1.338-.015,2.03l2.038-1.857Zm.864,6.047.863,1.838,1.763-1Zm8.32-.175-2.495,1.235,1,1.1Zm-3.9-8.646-.447,1.406,2.772.079Zm-.292-.116-2.74-.127-.009.025,2.3,1.529Zm1.468,10.207-1.444,2.346.019.02,2.435-1.258Zm-.165-2.433-2.012,1.834,2,.17C69.942,192.829,69.947,192.176,69.951,191.492ZM66.467,186.6l2.594.825-.85-1.815Zm-1.517,9.775,2.725.127.008-.023L65.4,194.958Zm-.036-12.529-.02-.02-2.418,1.252,1,1.1Zm5.3,6.839,1.136-1.631-1.714-1.005Zm-7.828,4.1,2.275,1.464.441-1.388Zm-.123-9.476-1.478,2.3,2.461-1.217Zm-1.767,3.3-.029,0c-.041.895-.082,1.79-.124,2.69l1.437-.315Zm1.152,5.4.029-.007.172-2.7-1.437.315Z" transform="translate(-59.69 -182.924)"/></g><path class="f" d="M70.538,184.134a7.122,7.122,0,0,0-9.2,10.357A34.915,34.915,0,0,1,70.538,184.134Z" transform="translate(-40.937 -177.621)"/><path class="g" d="M51.144,171.732s-17.841-8.854-36.782,10.76c0,0,6.725,7.173,15.691,10.536A34.767,34.767,0,0,1,51.144,171.732Z" transform="translate(-14.362 -169.739)"/></g><g transform="translate(2917.868 -234.78)"><path class="d" d="M149.5,208.433h5.634v1.393h-3.977v1.614h3.65v1.287h-3.65v1.846h4.062v1.393H149.5Z" transform="translate(-149.497 -208.253)"/><path class="d" d="M175.794,217.149a1.021,1.021,0,0,0-1.108-.939c-.96,0-1.277.971-1.277,1.772,0,.781.306,1.72,1.245,1.72a1.153,1.153,0,0,0,1.192-1.108h1.446a2.438,2.438,0,0,1-2.627,2.237,2.648,2.648,0,0,1-2.754-2.8,2.7,2.7,0,0,1,2.785-2.954,2.317,2.317,0,0,1,2.564,2.068Z" transform="translate(-165.402 -212.971)"/><path class="d" d="M195.581,215.081a2.876,2.876,0,1,1-2.817,2.88A2.678,2.678,0,0,1,195.581,215.081Zm0,4.621c1.023,0,1.329-.875,1.329-1.741s-.306-1.751-1.329-1.751-1.319.876-1.319,1.751S194.568,219.7,195.581,219.7Z" transform="translate(-180.2 -212.971)"/><path class="d" d="M215.688,215.229H217.1v.738h.021a1.97,1.97,0,0,1,1.667-.886,1.614,1.614,0,0,1,1.593.907,1.98,1.98,0,0,1,1.646-.907,1.764,1.764,0,0,1,1.994,1.952v3.65h-1.5v-3.091c0-.728-.063-1.329-.918-1.329s-1,.7-1,1.382v3.038h-1.5v-3.06c0-.633.042-1.361-.908-1.361-.3,0-1.013.19-1.013,1.256v3.165h-1.5Z" transform="translate(-196.467 -212.971)"/><path class="d" d="M248.6,215.229h1.414v.738h.021a1.97,1.97,0,0,1,1.667-.886,1.614,1.614,0,0,1,1.593.907,1.981,1.981,0,0,1,1.646-.907,1.765,1.765,0,0,1,1.994,1.952v3.65h-1.5v-3.091c0-.728-.063-1.329-.918-1.329s-1,.7-1,1.382v3.038h-1.5v-3.06c0-.633.042-1.361-.907-1.361-.3,0-1.013.19-1.013,1.256v3.165h-1.5Z" transform="translate(-219.822 -212.971)"/><path class="d" d="M292.014,208.433h3.4a2.423,2.423,0,1,1,0,4.832H293.67v2.7h-1.656Zm1.656,3.545h1.287c.77,0,1.456-.169,1.456-1.129s-.686-1.129-1.456-1.129H293.67Z" transform="translate(-250.628 -208.253)"/><path class="d" d="M315.7,215.229h1.424v1.013h.021a1.929,1.929,0,0,1,1.741-1.16,1.116,1.116,0,0,1,.327.053v1.393a2.71,2.71,0,0,0-.538-.053c-1.1,0-1.477.791-1.477,1.751v2.458h-1.5Z" transform="translate(-267.436 -212.971)"/><path class="d" d="M331.413,215.081a2.876,2.876,0,1,1-2.817,2.88A2.678,2.678,0,0,1,331.413,215.081Zm0,4.621c1.023,0,1.329-.875,1.329-1.741s-.306-1.751-1.329-1.751-1.319.876-1.319,1.751S330.4,219.7,331.413,219.7Z" transform="translate(-276.587 -212.971)"/><path class="d" d="M354.7,215.27h-.021a1.811,1.811,0,0,1-1.656.844c-1.646,0-2.448-1.414-2.448-2.923,0-1.466.813-2.828,2.416-2.828a1.876,1.876,0,0,1,1.614.813h.021v-2.743h1.5v7.533H354.7Zm-1.308-3.777c-.981,0-1.319.844-1.319,1.741,0,.855.39,1.751,1.319,1.751.992,0,1.287-.865,1.287-1.762S354.363,211.493,353.392,211.493Z" transform="translate(-292.184 -208.253)"/><path class="d" d="M378.688,221.044h-1.424v-.76h-.032a1.946,1.946,0,0,1-1.667.908c-1.593,0-1.994-.9-1.994-2.247V215.59h1.5v3.08c0,.9.264,1.34.96,1.34.812,0,1.161-.454,1.161-1.561V215.59h1.5Z" transform="translate(-308.502 -213.332)"/><path class="d" d="M398.415,217.149a1.022,1.022,0,0,0-1.108-.939c-.96,0-1.277.971-1.277,1.772,0,.781.306,1.72,1.245,1.72a1.153,1.153,0,0,0,1.192-1.108h1.445a2.438,2.438,0,0,1-2.627,2.237,2.648,2.648,0,0,1-2.754-2.8,2.7,2.7,0,0,1,2.786-2.954,2.317,2.317,0,0,1,2.564,2.068Z" transform="translate(-323.376 -212.971)"/><path class="d" d="M416.628,211.594h1.1v1h-1.1v2.7c0,.506.126.633.633.633a2.328,2.328,0,0,0,.464-.042v1.171a5.725,5.725,0,0,1-.876.053c-.918,0-1.72-.211-1.72-1.3V212.6h-.908v-1h.908v-1.635h1.5Z" transform="translate(-337.348 -209.336)"/><path class="d" d="M439.4,208.433h2.332l1.762,5.18h.021l1.667-5.18h2.332v7.533h-1.551v-5.339h-.021l-1.847,5.339h-1.276l-1.847-5.286h-.021v5.286H439.4Z" transform="translate(-355.214 -208.253)"/><path class="d" d="M474.04,215.081a2.876,2.876,0,1,1-2.817,2.88A2.678,2.678,0,0,1,474.04,215.081Zm0,4.621c1.023,0,1.329-.875,1.329-1.741s-.306-1.751-1.329-1.751-1.319.876-1.319,1.751S473.027,219.7,474.04,219.7Z" transform="translate(-377.797 -212.971)"/><path class="d" d="M494,215.229h1.424v.76h.032a1.946,1.946,0,0,1,1.667-.907c1.593,0,1.994.9,1.994,2.247v3.355h-1.5V217.6c0-.9-.264-1.34-.96-1.34-.812,0-1.16.454-1.16,1.561v2.859H494Z" transform="translate(-393.96 -212.971)"/><path class="d" d="M517.187,209.667h-1.5v-1.234h1.5Zm-1.5.844h1.5v5.454h-1.5Z" transform="translate(-409.35 -208.253)"/><path class="d" d="M525.577,211.594h1.1v1h-1.1v2.7c0,.506.126.633.633.633a2.325,2.325,0,0,0,.464-.042v1.171a5.719,5.719,0,0,1-.876.053c-.918,0-1.719-.211-1.719-1.3V212.6h-.907v-1h.907v-1.635h1.5Z" transform="translate(-414.66 -209.336)"/><path class="d" d="M539.94,215.081a2.876,2.876,0,1,1-2.817,2.88A2.678,2.678,0,0,1,539.94,215.081Zm0,4.621c1.023,0,1.329-.875,1.329-1.741s-.306-1.751-1.329-1.751-1.319.876-1.319,1.751S538.927,219.7,539.94,219.7Z" transform="translate(-424.56 -212.971)"/><path class="d" d="M559.9,215.229h1.424v1.013h.021a1.928,1.928,0,0,1,1.741-1.16,1.118,1.118,0,0,1,.327.053v1.393a2.716,2.716,0,0,0-.538-.053c-1.1,0-1.477.791-1.477,1.751v2.458h-1.5Z" transform="translate(-440.722 -212.971)"/><path class="d" d="M575.675,209.667h-1.5v-1.234h1.5Zm-1.5.844h1.5v5.454h-1.5Z" transform="translate(-450.853 -208.253)"/><path class="d" d="M583.405,215.229h1.424v.76h.032a1.946,1.946,0,0,1,1.667-.907c1.593,0,1.994.9,1.994,2.247v3.355h-1.5V217.6c0-.9-.263-1.34-.96-1.34-.812,0-1.16.454-1.16,1.561v2.859h-1.5Z" transform="translate(-457.402 -212.971)"/><path class="d" d="M609.778,220.335c0,.9-.316,2.416-2.828,2.416-1.076,0-2.331-.506-2.405-1.751h1.488a1.013,1.013,0,0,0,1.118.749c.833,0,1.213-.57,1.2-1.35v-.718h-.021a1.843,1.843,0,0,1-1.635.844c-1.635,0-2.331-1.245-2.331-2.743a2.436,2.436,0,0,1,2.342-2.7,1.7,1.7,0,0,1,1.625.876h.021v-.728h1.424Zm-1.424-2.448c0-.886-.306-1.677-1.277-1.677-.844,0-1.213.738-1.213,1.551,0,.781.3,1.635,1.213,1.635A1.342,1.342,0,0,0,608.354,217.887Z" transform="translate(-472.276 -212.971)"/><path class="d" d="M637.756,213.027c0,1,.781,1.393,1.667,1.393.58,0,1.466-.169,1.466-.939,0-.812-1.129-.95-2.237-1.245s-2.247-.728-2.247-2.142c0-1.54,1.456-2.279,2.817-2.279,1.572,0,3.017.686,3.017,2.427h-1.6c-.053-.907-.7-1.139-1.487-1.139-.528,0-1.139.222-1.139.855,0,.58.359.654,2.247,1.139.549.137,2.237.485,2.237,2.195,0,1.382-1.087,2.416-3.133,2.416-1.667,0-3.229-.823-3.207-2.679Z" transform="translate(-494.832 -207.815)"/><path class="d" d="M661.41,218.32c.042.95.506,1.382,1.34,1.382a1.233,1.233,0,0,0,1.181-.706h1.319a2.454,2.454,0,0,1-2.553,1.836,2.664,2.664,0,0,1-2.786-2.87,2.736,2.736,0,0,1,2.786-2.88c1.856,0,2.754,1.561,2.648,3.239Zm2.437-.949c-.137-.759-.464-1.16-1.192-1.16a1.18,1.18,0,0,0-1.245,1.16Z" transform="translate(-511.692 -212.971)"/><path class="d" d="M681.673,215.229H683.1v1.013h.021a1.928,1.928,0,0,1,1.741-1.16,1.118,1.118,0,0,1,.327.053v1.393a2.712,2.712,0,0,0-.538-.053c-1.1,0-1.477.791-1.477,1.751v2.458h-1.5Z" transform="translate(-527.134 -212.971)"/><path class="d" d="M697.558,221.044h-1.667l-1.867-5.454H695.6l1.15,3.724h.021l1.15-3.724H699.4Z" transform="translate(-535.898 -213.332)"/><path class="d" d="M716.339,209.667h-1.5v-1.234h1.5Zm-1.5.844h1.5v5.454h-1.5Z" transform="translate(-550.67 -208.253)"/><path class="d" d="M727.369,217.149a1.021,1.021,0,0,0-1.108-.939c-.96,0-1.276.971-1.276,1.772,0,.781.306,1.72,1.245,1.72a1.153,1.153,0,0,0,1.192-1.108h1.445a2.437,2.437,0,0,1-2.627,2.237,2.647,2.647,0,0,1-2.753-2.8,2.7,2.7,0,0,1,2.785-2.954,2.317,2.317,0,0,1,2.564,2.068Z" transform="translate(-556.805 -212.971)"/><path class="d" d="M745.51,218.32c.042.95.506,1.382,1.34,1.382a1.233,1.233,0,0,0,1.181-.706h1.319a2.454,2.454,0,0,1-2.553,1.836,2.664,2.664,0,0,1-2.785-2.87,2.736,2.736,0,0,1,2.785-2.88c1.857,0,2.754,1.561,2.648,3.239Zm2.437-.949c-.137-.759-.464-1.16-1.192-1.16a1.18,1.18,0,0,0-1.245,1.16Z" transform="translate(-571.37 -212.971)"/></g><g transform="translate(2974.343 -259.597)"><g transform="translate(0)"><path class="d" d="M154.963,169.811H150.8v-2.566h11.373v2.566h-4.16v11.315h-3.052Z" transform="translate(-150.803 -167.245)"/><path class="d" d="M170.091,167.245h3.052v5.327h5.619v-5.327h3.052v13.881h-3.052v-5.988h-5.619v5.988h-3.052Z" transform="translate(-157.123 -167.245)"/><path class="d" d="M191.518,167.245H201.9v2.566h-7.33v2.974H201.3v2.372H194.57v3.4h7.485v2.566H191.518Z" transform="translate(-164.144 -167.245)"/><path class="d" d="M218.295,167.245h4.3l3.247,9.545h.039l3.072-9.545h4.3v13.881h-2.858v-9.838h-.038l-3.4,9.838h-2.352l-3.4-9.74h-.039v9.74h-2.858Z" transform="translate(-172.917 -167.245)"/><path class="d" d="M250.248,181.126h-3.441L242.3,167.245h3.15l3.091,9.76h.039l3.13-9.76h3.15Z" transform="translate(-180.782 -167.245)"/><path class="d" d="M262.74,167.245h10.382v2.566h-7.329v2.974h6.726v2.372h-6.726v3.4h7.484v2.566H262.74Z" transform="translate(-187.48 -167.245)"/><path class="d" d="M285.433,184.256a3.154,3.154,0,0,1-3.461,2.275,16.568,16.568,0,0,1-1.692-.1v-2.275a14.472,14.472,0,0,0,1.614.1,1.3,1.3,0,0,0,.952-1.886l-3.538-9.429h2.955l2.275,6.882h.038l2.2-6.882h2.857Z" transform="translate(-192.909 -169.111)"/><path class="d" d="M298.09,178.505c.078,1.749.933,2.547,2.469,2.547a2.273,2.273,0,0,0,2.178-1.3h2.43a4.521,4.521,0,0,1-4.7,3.383c-3.169,0-5.133-2.177-5.133-5.287a5.041,5.041,0,0,1,5.133-5.307c3.422,0,5.073,2.877,4.879,5.968Zm4.491-1.75c-.253-1.4-.855-2.139-2.2-2.139a2.176,2.176,0,0,0-2.294,2.139Z" transform="translate(-198.159 -168.979)"/><path class="d" d="M313.055,167.245h2.761v2.974a3.125,3.125,0,0,1-2.761,3.266V172.2a1.786,1.786,0,0,0,1.283-1.964h-1.283Z" transform="translate(-203.967 -167.245)"/><path class="d" d="M320.451,179.594c.02,1.206,1.03,1.691,2.119,1.691.8,0,1.808-.311,1.808-1.283,0-.836-1.147-1.128-3.13-1.555-1.594-.35-3.188-.914-3.188-2.683,0-2.566,2.216-3.227,4.374-3.227,2.2,0,4.219.738,4.433,3.208h-2.624c-.078-1.07-.895-1.361-1.886-1.361-.622,0-1.536.116-1.536.933,0,.992,1.555,1.128,3.13,1.5,1.614.369,3.188.953,3.188,2.819,0,2.644-2.294,3.5-4.588,3.5-2.333,0-4.608-.875-4.725-3.538Z" transform="translate(-205.53 -168.979)"/></g></g></g></svg>