<svg xmlns="http://www.w3.org/2000/svg" xmlns:xlink="http://www.w3.org/1999/xlink" width="40" height="40" viewBox="0 0 40 40"><defs><style>.a{fill:none;}.b{fill:#f3f3f3;}.c{clip-path:url(#a);}.d{fill:#ffdfba;}.e{fill:#fe4f60;}.f{fill:#42434d;}.g{fill:#ffebd2;}.h{fill:#fff;}.i{fill:#fff3e4;}.j{fill:#ffd6a6;}.k{fill:#ff6d7a;}.l{fill:#e84857;}.m{fill:#4d4e59;}</style><clipPath id="a"><circle class="a" cx="20" cy="20" r="20" transform="translate(7527 3837)"/></clipPath></defs><g transform="translate(-7565 -3837)"><circle class="b" cx="20" cy="20" r="20" transform="translate(7565 3837)"/><g class="c" transform="translate(38)"><g transform="translate(7457.478 3842.83)"><path class="d" d="M100.707,30.69v2.891a.589.589,0,0,1-.589.589h-21.5a.589.589,0,0,1-.589-.589V30.69A5.491,5.491,0,0,1,83.52,25.2,3.049,3.049,0,0,0,86.08,23.81a3.461,3.461,0,0,0,.49-2.158l.011-.027a7.29,7.29,0,0,1-4.5-6.737v-.23a1.816,1.816,0,0,1-1.841-1.807V9.79a10.192,10.192,0,0,1,2.739-7.439c3.156-3.042,8.157-2.793,11.78-1.166a.148.148,0,0,1-.005.271l-.945.389a.147.147,0,0,0,.04.283l.459.049a7.432,7.432,0,0,1,5.5,3.413.158.158,0,0,1-.019.182,4.455,4.455,0,0,0-1.216,3.06V12.85a1.807,1.807,0,0,1-1.807,1.807h-.107v.23a7.29,7.29,0,0,1-4.5,6.737l.011.027a3.46,3.46,0,0,0,.49,2.158A3.049,3.049,0,0,0,95.215,25.2a5.491,5.491,0,0,1,5.492,5.491Z" transform="translate(0 0)"/><path class="e" d="M100.707,330.245v2.891a.589.589,0,0,1-.589.589h-21.5a.589.589,0,0,1-.589-.589v-2.891a5.492,5.492,0,0,1,5.492-5.491,3.049,3.049,0,0,0,2.56-1.389,5.054,5.054,0,0,0,6.575,0,3.049,3.049,0,0,0,2.56,1.389A5.492,5.492,0,0,1,100.707,330.245Z" transform="translate(0 -299.556)"/><path class="f" d="M127.56,5.591a.156.156,0,0,1-.019.181,4.457,4.457,0,0,0-1.216,3.06v4.018a1.81,1.81,0,0,1-1.914,1.807V10.109a3.534,3.534,0,0,0-3.534-3.534h-7.511a3.534,3.534,0,0,0-3.534,3.534v4.548a1.816,1.816,0,0,1-1.841-1.807V9.79a10.192,10.192,0,0,1,2.739-7.439c3.156-3.042,8.157-2.793,11.779-1.165a.148.148,0,0,1,0,.271l-.945.389a.147.147,0,0,0,.04.283l.459.049a7.429,7.429,0,0,1,5.5,3.413Z" transform="translate(-27.753 -0.001)"/><path class="g" d="M147.607,97.6a7.291,7.291,0,1,1-14.579-.23V92.82a3.534,3.534,0,0,1,3.534-3.534h7.511a3.534,3.534,0,0,1,3.534,3.534Z" transform="translate(-50.95 -82.712)"/><path class="h" d="M283.384,432.234h-1.767a.589.589,0,1,1,0-1.178h1.767a.589.589,0,0,1,0,1.178Z" transform="translate(-188.053 -399.316)"/><path class="i" d="M138.667,116.807a1.164,1.164,0,0,1-1.059,2.062,7.291,7.291,0,0,1-4.581-6.769v-4.779a3.519,3.519,0,0,1,.62-2,.871.871,0,0,1,1.589.528v4.779A7.236,7.236,0,0,0,138.667,116.807Z" transform="translate(-50.95 -97.212)"/><path class="j" d="M198.66,294.922a7.31,7.31,0,0,1-5.762,0,4.563,4.563,0,0,0,.083-1.209l.011-.027a7.3,7.3,0,0,0,5.574,0l.011.027A4.562,4.562,0,0,0,198.66,294.922Z" transform="translate(-106.412 -272.061)"/><path class="k" d="M86.487,326.533a2.994,2.994,0,0,1-.877.136,5.506,5.506,0,0,0-5.52,5.472v.554a1.031,1.031,0,0,1-1.031,1.031h-.442a.589.589,0,0,1-.589-.589v-2.891a5.492,5.492,0,0,1,5.492-5.491,3.049,3.049,0,0,0,2.56-1.389,5.1,5.1,0,0,0,.7.5A1.471,1.471,0,0,1,86.487,326.533Z" transform="translate(0 -299.556)"/><path class="l" d="M258.376,326.533a2.994,2.994,0,0,0,.877.136,5.506,5.506,0,0,1,5.52,5.472v.554a1.031,1.031,0,0,0,1.031,1.031h.442a.589.589,0,0,0,.589-.589v-2.891a5.492,5.492,0,0,0-5.492-5.491,3.049,3.049,0,0,1-2.56-1.389,5.1,5.1,0,0,1-.7.5A1.471,1.471,0,0,0,258.376,326.533Z" transform="translate(-166.128 -299.556)"/><path class="m" d="M122.5,1.456c-.866.356-.989.435-1.289.388-4.836-.75-9.078,1.251-10.519,5.949h0a3.517,3.517,0,0,0-.864,2.315v2.763a.921.921,0,1,1-1.841-.022V9.79a10.192,10.192,0,0,1,2.739-7.439c3.156-3.042,8.157-2.793,11.78-1.166a.148.148,0,0,1-.005.271Z" transform="translate(-27.753 0)"/></g></g></g></svg>