<svg xmlns="http://www.w3.org/2000/svg" xmlns:xlink="http://www.w3.org/1999/xlink" width="100" height="100" viewBox="0 0 100 100"><defs><style>.a{fill:#cce4f6;}.b{fill:#3c3b3b;}.c{fill:url(#a);}.d{fill:url(#b);}.e{fill:#fff;}.f{fill:url(#c);}.g{fill:#b2b1b1;mix-blend-mode:multiply;isolation:isolate;}.h{fill:url(#d);}</style><linearGradient id="a" x1="0.255" y1="0.56" x2="1.227" y2="0.22" gradientUnits="objectBoundingBox"><stop offset="0" stop-color="#0d1f4b"/><stop offset="0.14" stop-color="#102a5a"/><stop offset="0.413" stop-color="#1b4a83"/><stop offset="0.737" stop-color="#2975bb"/></linearGradient><linearGradient id="b" y1="0.5" x2="1" y2="0.5" gradientUnits="objectBoundingBox"><stop offset="0.145" stop-color="#3c3b3b"/><stop offset="0.469" stop-color="#2a2928"/><stop offset="0.737" stop-color="#21201e"/><stop offset="1" stop-color="#3c3b3b"/></linearGradient><linearGradient id="c" x1="48.328" y1="-41.24" x2="49.35" y2="-41.24" gradientUnits="objectBoundingBox"><stop offset="0" stop-color="#0d1f4b"/><stop offset="0.125" stop-color="#102c5a"/><stop offset="0.369" stop-color="#184f83"/><stop offset="0.703" stop-color="#2687c4"/><stop offset="0.797" stop-color="#2b99d8"/></linearGradient><linearGradient id="d" x1="0.256" y1="0.707" x2="0.697" y2="0.01" xlink:href="#c"/></defs><g transform="translate(-1390 -210)"><circle class="a" cx="50" cy="50" r="50" transform="translate(1390 210)"/><g transform="translate(1251.237 -146.698)"><path class="b" d="M231.484,399.554l-1.922,2.972s-3.015,16.2-21.593,21.4l-2.229,3.567S227.059,424.27,231.484,399.554Z" transform="translate(-23.145 -4.389)"/><path class="c" d="M231.484,399.554l15.424,10.431s-17.24,20.482-41.168,17.51C205.74,427.494,226.908,423.63,231.484,399.554Z" transform="translate(-23.145 -4.389)"/><path class="d" d="M191.272,422.7H193.5c6.985-16.2,26.38-21.55,26.38-21.55l-.642-6.688S194.852,397.584,191.272,422.7Z" transform="translate(-16.702 -2.122)"/><g transform="translate(178.907 397.012)"><path class="e" d="M210.67,421.748l-.133.029a.219.219,0,0,0-.049-.013c-1.466-.066-2.932-.135-4.4-.195a1.553,1.553,0,0,1-.828-.241c-1.226-.8-2.465-1.588-3.695-2.387a.832.832,0,0,1-.271-.292c-.4-.758-.789-1.523-1.184-2.284q-.493-.953-.992-1.9l-.029-.133c.006-.061.015-.122.018-.183.068-1.483.137-2.966.2-4.449a1.043,1.043,0,0,1,.17-.539c.812-1.262,1.618-2.527,2.433-3.786a.827.827,0,0,1,.291-.273c.708-.377,1.422-.739,2.134-1.108q1.035-.538,2.069-1.078l.133-.029a.114.114,0,0,0,.032.012c1.551.071,3.1.138,4.654.217a.994.994,0,0,1,.458.145q1.895,1.2,3.775,2.42a1.033,1.033,0,0,1,.335.366c.49.922.964,1.852,1.445,2.778.234.449.473.9.71,1.344l.044.2a.573.573,0,0,0-.016.08c-.072,1.528-.14,3.055-.219,4.582a.891.891,0,0,1-.124.413q-1.223,1.93-2.466,3.848a.9.9,0,0,1-.321.288c-.7.372-1.4.73-2.1,1.094S211.36,421.388,210.67,421.748Z" transform="translate(-199.091 -402.883)"/><path class="f" d="M210.67,421.748l-.133.029a.219.219,0,0,0-.049-.013c-1.466-.066-2.932-.135-4.4-.195a1.553,1.553,0,0,1-.828-.241c-1.226-.8-2.465-1.588-3.695-2.387a.832.832,0,0,1-.271-.292c-.4-.758-.789-1.523-1.184-2.284q-.493-.953-.992-1.9l-.029-.133c.006-.061.015-.122.018-.183.068-1.483.137-2.966.2-4.449a1.043,1.043,0,0,1,.17-.539c.812-1.262,1.618-2.527,2.433-3.786a.827.827,0,0,1,.291-.273c.708-.377,1.422-.739,2.134-1.108q1.035-.538,2.069-1.078l.133-.029a.114.114,0,0,0,.032.012c1.551.071,3.1.138,4.654.217a.994.994,0,0,1,.458.145q1.895,1.2,3.775,2.42a1.033,1.033,0,0,1,.335.366c.49.922.964,1.852,1.445,2.778.234.449.473.9.71,1.344l.044.2a.573.573,0,0,0-.016.08c-.072,1.528-.14,3.055-.219,4.582a.891.891,0,0,1-.124.413q-1.223,1.93-2.466,3.848a.9.9,0,0,1-.321.288c-.7.372-1.4.73-2.1,1.094S211.36,421.388,210.67,421.748Zm-5.847-8.6c.145.664.293,1.328.434,1.993a.223.223,0,0,0,.174.195c1.311.413,2.619.833,3.931,1.244a.248.248,0,0,0,.2-.042c1.016-.918,2.025-1.843,3.039-2.762a.254.254,0,0,0,.087-.28q-.439-1.974-.864-3.952a.262.262,0,0,0-.212-.222q-1.942-.611-3.88-1.235a.207.207,0,0,0-.237.054q-1.514,1.387-3.035,2.765a.224.224,0,0,0-.078.25C204.534,411.814,204.677,412.478,204.822,413.143Zm2.122,5.386,3.18,2.117c-.26-1.187-.51-2.331-.764-3.489Zm-.039-14.508.765,3.491,2.415-1.372ZM213.115,414c-.007.934-.013,1.85-.02,2.789l3.439-1.7Zm1.551-3.405c.083-1.287.163-2.537.245-3.829l-2.651,2.417Zm-9.9,4.886-2.4-1.413c-.082,1.286-.163,2.538-.245,3.829Zm-4.272-5.906,3.418,1.088c.007-.94.013-1.851.02-2.789Zm6.746-1.98-.758-3.46-1.987,3.225Zm4.741,1.276,2.626-2.4-3.8-.108Zm1.263,4.734,3.387,1.078-1.807-3.345ZM200.4,409.982l1.808,3.344,1.579-2.265Zm4.65,5.815-2.627,2.394,3.8.108Zm5.5,4.734,1.985-3.225-2.743-.233C210.043,418.232,210.29,419.361,210.546,420.531Zm-6.526-9.085-1.541,2.212,2.323,1.36C204.538,413.814,204.283,412.65,204.02,411.446Zm13.1-.778-1.956.428,1.752,3.245.033-.007C217.009,413.12,217.065,411.9,217.123,410.668Zm-.092-.416-1.687-3.261-.032.01c-.078,1.223-.156,2.445-.235,3.678Zm-12.678-2.484c-.007.9-.013,1.774-.02,2.691l2.7-2.463Zm1.146,8.018,1.144,2.437,2.339-1.329Zm11.033-.232-3.309,1.638,1.328,1.454Zm-5.175-11.464-.593,1.865,3.676.1Zm-.388-.154-3.634-.168-.012.032,3.044,2.029Zm1.948,13.534L211,420.582l.025.027,3.228-1.668Zm-.219-3.227-2.668,2.432,2.649.226C212.685,416.017,212.691,415.152,212.7,414.244Zm-4.62-6.486,3.44,1.094-1.128-2.407Zm-2.011,12.962,3.613.168.012-.031-3.027-2.017Zm-.048-16.614-.026-.027-3.207,1.66,1.329,1.458Zm7.028,9.068,1.507-2.162-2.272-1.333Zm-10.38,5.438,3.017,1.941.585-1.84Zm-.162-12.565-1.96,3.044,3.263-1.614Zm-2.344,4.369-.038,0c-.055,1.186-.11,2.372-.165,3.566l1.9-.417Zm1.527,7.159.038-.009c.076-1.189.152-2.378.229-3.575l-1.905.417Z" transform="translate(-199.091 -402.883)"/></g><path class="g" d="M213.359,404.369A9.444,9.444,0,0,0,201.154,418.1,46.3,46.3,0,0,1,213.359,404.369Z" transform="translate(-20.344 -6.034)"/><path class="h" d="M202.537,392.341S178.88,380.6,153.763,406.609c0,0,8.918,9.512,20.807,13.97A46.1,46.1,0,0,1,202.537,392.341Z"/></g></g></svg>